<mxfile host="app.diagrams.net" modified="2024-06-15T06:58:25.399Z" agent="Mozilla/5.0 (Windows NT 10.0; Win64; x64) AppleWebKit/537.36 (KHTML, like Gecko) Chrome/125.0.0.0 Safari/537.36" etag="wyLlGPMDX1_0j361hvZL" version="24.2.3" type="github">
  <diagram name="第 1 页" id="XZq-AVoYkkmk6abv5PwP">
    <mxGraphModel dx="2072" dy="1016" grid="1" gridSize="10" guides="1" tooltips="1" connect="1" arrows="1" fold="1" page="1" pageScale="1" pageWidth="827" pageHeight="1169" math="0" shadow="0">
      <root>
        <mxCell id="0" />
        <mxCell id="1" parent="0" />
        <mxCell id="Tp4UnbFH_tM6nSBPs5ul-40" style="edgeStyle=orthogonalEdgeStyle;rounded=0;orthogonalLoop=1;jettySize=auto;html=1;" edge="1" parent="1" source="Tp4UnbFH_tM6nSBPs5ul-3" target="Tp4UnbFH_tM6nSBPs5ul-6">
          <mxGeometry relative="1" as="geometry">
            <mxPoint x="1380" y="150" as="targetPoint" />
            <Array as="points">
              <mxPoint x="845" y="250" />
              <mxPoint x="1249" y="250" />
            </Array>
          </mxGeometry>
        </mxCell>
        <mxCell id="Tp4UnbFH_tM6nSBPs5ul-107" value="数据下发" style="edgeLabel;html=1;align=center;verticalAlign=middle;resizable=0;points=[];" vertex="1" connectable="0" parent="Tp4UnbFH_tM6nSBPs5ul-40">
          <mxGeometry x="0.7891" y="-4" relative="1" as="geometry">
            <mxPoint x="4" y="17" as="offset" />
          </mxGeometry>
        </mxCell>
        <mxCell id="Tp4UnbFH_tM6nSBPs5ul-5" value="&lt;b&gt;&lt;span style=&quot;font-size:12.0pt;font-family:等线;&lt;br/&gt;mso-ascii-font-family:Calibri;mso-ascii-theme-font:minor-latin;mso-fareast-theme-font:&lt;br/&gt;minor-fareast;mso-hansi-font-family:Calibri;mso-hansi-theme-font:minor-latin;&lt;br/&gt;mso-bidi-font-family:&amp;quot;Times New Roman&amp;quot;;mso-bidi-theme-font:minor-bidi;&lt;br/&gt;color:#1F4E79;mso-themecolor:accent5;mso-themeshade:128;mso-ansi-language:EN-US;&lt;br/&gt;mso-fareast-language:ZH-CN;mso-bidi-language:AR-SA&quot;&gt;国和站&lt;/span&gt;&lt;/b&gt;" style="verticalLabelPosition=bottom;verticalAlign=top;html=1;shape=mxgraph.basic.rect;fillColor2=none;strokeWidth=1;size=20;indent=5;" vertex="1" parent="1">
          <mxGeometry x="10" y="320" width="790" height="520" as="geometry" />
        </mxCell>
        <mxCell id="Tp4UnbFH_tM6nSBPs5ul-19" style="edgeStyle=orthogonalEdgeStyle;rounded=0;orthogonalLoop=1;jettySize=auto;html=1;" edge="1" parent="1" source="Tp4UnbFH_tM6nSBPs5ul-4" target="Tp4UnbFH_tM6nSBPs5ul-8">
          <mxGeometry relative="1" as="geometry" />
        </mxCell>
        <mxCell id="Tp4UnbFH_tM6nSBPs5ul-43" value="通讯方式RS485" style="edgeLabel;html=1;align=center;verticalAlign=middle;resizable=0;points=[];" vertex="1" connectable="0" parent="Tp4UnbFH_tM6nSBPs5ul-19">
          <mxGeometry x="0.4532" y="-3" relative="1" as="geometry">
            <mxPoint as="offset" />
          </mxGeometry>
        </mxCell>
        <mxCell id="Tp4UnbFH_tM6nSBPs5ul-38" style="edgeStyle=orthogonalEdgeStyle;rounded=0;orthogonalLoop=1;jettySize=auto;html=1;" edge="1" parent="1" source="Tp4UnbFH_tM6nSBPs5ul-4" target="Tp4UnbFH_tM6nSBPs5ul-21">
          <mxGeometry relative="1" as="geometry" />
        </mxCell>
        <mxCell id="Tp4UnbFH_tM6nSBPs5ul-45" value="通讯方式RS485" style="edgeLabel;html=1;align=center;verticalAlign=middle;resizable=0;points=[];" vertex="1" connectable="0" parent="Tp4UnbFH_tM6nSBPs5ul-38">
          <mxGeometry x="-0.4322" y="-3" relative="1" as="geometry">
            <mxPoint y="1" as="offset" />
          </mxGeometry>
        </mxCell>
        <mxCell id="Tp4UnbFH_tM6nSBPs5ul-49" style="edgeStyle=orthogonalEdgeStyle;rounded=0;orthogonalLoop=1;jettySize=auto;html=1;" edge="1" parent="1" source="Tp4UnbFH_tM6nSBPs5ul-4" target="Tp4UnbFH_tM6nSBPs5ul-42">
          <mxGeometry relative="1" as="geometry" />
        </mxCell>
        <mxCell id="Tp4UnbFH_tM6nSBPs5ul-51" value="通讯方式RS485" style="edgeLabel;html=1;align=center;verticalAlign=middle;resizable=0;points=[];" vertex="1" connectable="0" parent="Tp4UnbFH_tM6nSBPs5ul-49">
          <mxGeometry x="0.1556" y="-1" relative="1" as="geometry">
            <mxPoint as="offset" />
          </mxGeometry>
        </mxCell>
        <mxCell id="Tp4UnbFH_tM6nSBPs5ul-52" style="edgeStyle=orthogonalEdgeStyle;rounded=0;orthogonalLoop=1;jettySize=auto;html=1;" edge="1" parent="1" source="Tp4UnbFH_tM6nSBPs5ul-4" target="Tp4UnbFH_tM6nSBPs5ul-50">
          <mxGeometry relative="1" as="geometry" />
        </mxCell>
        <mxCell id="Tp4UnbFH_tM6nSBPs5ul-53" value="通讯方式RS485" style="edgeLabel;html=1;align=center;verticalAlign=middle;resizable=0;points=[];" vertex="1" connectable="0" parent="Tp4UnbFH_tM6nSBPs5ul-52">
          <mxGeometry x="0.3443" relative="1" as="geometry">
            <mxPoint y="15" as="offset" />
          </mxGeometry>
        </mxCell>
        <mxCell id="Tp4UnbFH_tM6nSBPs5ul-4" value="IOT-Local(树莓派)" style="image;html=1;image=img/lib/clip_art/networking/Print_Server_Wireless_128x128.png" vertex="1" parent="1">
          <mxGeometry x="290" y="330" width="106" height="80" as="geometry" />
        </mxCell>
        <mxCell id="Tp4UnbFH_tM6nSBPs5ul-6" value="&lt;b&gt;&lt;span style=&quot;font-size:12.0pt;font-family:等线;&lt;br/&gt;mso-ascii-font-family:Calibri;mso-ascii-theme-font:minor-latin;mso-fareast-theme-font:&lt;br/&gt;minor-fareast;mso-hansi-font-family:Calibri;mso-hansi-theme-font:minor-latin;&lt;br/&gt;mso-bidi-font-family:&amp;quot;Times New Roman&amp;quot;;mso-bidi-theme-font:minor-bidi;&lt;br/&gt;color:#1F4E79;mso-themecolor:accent5;mso-themeshade:128;mso-ansi-language:EN-US;&lt;br/&gt;mso-fareast-language:ZH-CN;mso-bidi-language:AR-SA&quot;&gt;泥城站&lt;/span&gt;&lt;/b&gt;" style="verticalLabelPosition=bottom;verticalAlign=top;html=1;shape=mxgraph.basic.rect;fillColor2=none;strokeWidth=1;size=20;indent=5;" vertex="1" parent="1">
          <mxGeometry x="854" y="321" width="790" height="520" as="geometry" />
        </mxCell>
        <mxCell id="Tp4UnbFH_tM6nSBPs5ul-94" style="edgeStyle=orthogonalEdgeStyle;rounded=0;orthogonalLoop=1;jettySize=auto;html=1;exitX=1;exitY=0.75;exitDx=0;exitDy=0;" edge="1" parent="1" source="Tp4UnbFH_tM6nSBPs5ul-7" target="Tp4UnbFH_tM6nSBPs5ul-99">
          <mxGeometry relative="1" as="geometry">
            <mxPoint x="1260.7142857142858" y="697.06" as="targetPoint" />
          </mxGeometry>
        </mxCell>
        <mxCell id="Tp4UnbFH_tM6nSBPs5ul-111" value="通讯方式RS485" style="edgeLabel;html=1;align=center;verticalAlign=middle;resizable=0;points=[];" vertex="1" connectable="0" parent="Tp4UnbFH_tM6nSBPs5ul-94">
          <mxGeometry x="-0.0017" y="-3" relative="1" as="geometry">
            <mxPoint as="offset" />
          </mxGeometry>
        </mxCell>
        <mxCell id="Tp4UnbFH_tM6nSBPs5ul-95" style="edgeStyle=orthogonalEdgeStyle;rounded=0;orthogonalLoop=1;jettySize=auto;html=1;entryX=0.554;entryY=0.025;entryDx=0;entryDy=0;entryPerimeter=0;exitX=1;exitY=0.75;exitDx=0;exitDy=0;" edge="1" parent="1" source="Tp4UnbFH_tM6nSBPs5ul-7" target="Tp4UnbFH_tM6nSBPs5ul-101">
          <mxGeometry relative="1" as="geometry">
            <mxPoint x="1234" y="360" as="sourcePoint" />
            <mxPoint x="1490" y="700" as="targetPoint" />
          </mxGeometry>
        </mxCell>
        <mxCell id="Tp4UnbFH_tM6nSBPs5ul-112" value="通讯方式RS485" style="edgeLabel;html=1;align=center;verticalAlign=middle;resizable=0;points=[];" vertex="1" connectable="0" parent="Tp4UnbFH_tM6nSBPs5ul-95">
          <mxGeometry x="0.3004" relative="1" as="geometry">
            <mxPoint as="offset" />
          </mxGeometry>
        </mxCell>
        <mxCell id="Tp4UnbFH_tM6nSBPs5ul-97" style="edgeStyle=orthogonalEdgeStyle;rounded=0;orthogonalLoop=1;jettySize=auto;html=1;entryX=0.371;entryY=0.013;entryDx=0;entryDy=0;entryPerimeter=0;exitX=1;exitY=0.75;exitDx=0;exitDy=0;" edge="1" parent="1" source="Tp4UnbFH_tM6nSBPs5ul-7" target="Tp4UnbFH_tM6nSBPs5ul-100">
          <mxGeometry relative="1" as="geometry">
            <mxPoint x="1405.7142857142858" y="700.0023529411765" as="targetPoint" />
          </mxGeometry>
        </mxCell>
        <mxCell id="Tp4UnbFH_tM6nSBPs5ul-113" value="通讯方式RS485" style="edgeLabel;html=1;align=center;verticalAlign=middle;resizable=0;points=[];" vertex="1" connectable="0" parent="Tp4UnbFH_tM6nSBPs5ul-97">
          <mxGeometry x="0.2259" y="3" relative="1" as="geometry">
            <mxPoint as="offset" />
          </mxGeometry>
        </mxCell>
        <mxCell id="Tp4UnbFH_tM6nSBPs5ul-7" value="IOT-Local(树莓派)" style="image;html=1;image=img/lib/clip_art/networking/Print_Server_Wireless_128x128.png" vertex="1" parent="1">
          <mxGeometry x="1127.59" y="320" width="106" height="80" as="geometry" />
        </mxCell>
        <mxCell id="Tp4UnbFH_tM6nSBPs5ul-8" value="门磁Hub" style="image;aspect=fixed;html=1;points=[];align=center;fontSize=12;image=img/lib/azure2/iot/IoT_Hub.svg;" vertex="1" parent="1">
          <mxGeometry x="66" y="530" width="64" height="64" as="geometry" />
        </mxCell>
        <mxCell id="Tp4UnbFH_tM6nSBPs5ul-37" style="edgeStyle=orthogonalEdgeStyle;rounded=0;orthogonalLoop=1;jettySize=auto;html=1;" edge="1" parent="1" source="Tp4UnbFH_tM6nSBPs5ul-21" target="Tp4UnbFH_tM6nSBPs5ul-25">
          <mxGeometry relative="1" as="geometry" />
        </mxCell>
        <mxCell id="Tp4UnbFH_tM6nSBPs5ul-21" value="门磁Hub" style="image;aspect=fixed;html=1;points=[];align=center;fontSize=12;image=img/lib/azure2/iot/IoT_Hub.svg;" vertex="1" parent="1">
          <mxGeometry x="265" y="530" width="64" height="64" as="geometry" />
        </mxCell>
        <mxCell id="Tp4UnbFH_tM6nSBPs5ul-23" value="" style="group" vertex="1" connectable="0" parent="1">
          <mxGeometry x="40" y="690" width="160" height="90" as="geometry" />
        </mxCell>
        <mxCell id="Tp4UnbFH_tM6nSBPs5ul-20" value="&lt;font face=&quot;等线&quot;&gt;&lt;span style=&quot;font-size: 16px;&quot;&gt;&lt;b&gt;小门磁&lt;/b&gt;&lt;/span&gt;&lt;/font&gt;" style="verticalLabelPosition=bottom;verticalAlign=top;html=1;shape=mxgraph.basic.rect;fillColor2=none;strokeWidth=1;size=20;indent=5;" vertex="1" parent="Tp4UnbFH_tM6nSBPs5ul-23">
          <mxGeometry width="160" height="90" as="geometry" />
        </mxCell>
        <mxCell id="Tp4UnbFH_tM6nSBPs5ul-9" value="" style="image;aspect=fixed;html=1;points=[];align=center;fontSize=12;image=img/lib/azure2/identity/Azure_Information_Protection.svg;" vertex="1" parent="Tp4UnbFH_tM6nSBPs5ul-23">
          <mxGeometry x="7.960199004975125" y="16.363636363636363" width="17.982089552238808" height="23.880597014925375" as="geometry" />
        </mxCell>
        <mxCell id="Tp4UnbFH_tM6nSBPs5ul-10" value="" style="image;aspect=fixed;html=1;points=[];align=center;fontSize=12;image=img/lib/azure2/identity/Azure_Information_Protection.svg;" vertex="1" parent="Tp4UnbFH_tM6nSBPs5ul-23">
          <mxGeometry x="7.960199004975125" y="49.09090909090909" width="17.982089552238808" height="23.880597014925375" as="geometry" />
        </mxCell>
        <mxCell id="Tp4UnbFH_tM6nSBPs5ul-11" value="" style="image;aspect=fixed;html=1;points=[];align=center;fontSize=12;image=img/lib/azure2/identity/Azure_Information_Protection.svg;" vertex="1" parent="Tp4UnbFH_tM6nSBPs5ul-23">
          <mxGeometry x="40.59701492537314" y="49.09090909090909" width="17.982089552238808" height="23.880597014925375" as="geometry" />
        </mxCell>
        <mxCell id="Tp4UnbFH_tM6nSBPs5ul-12" value="" style="image;aspect=fixed;html=1;points=[];align=center;fontSize=12;image=img/lib/azure2/identity/Azure_Information_Protection.svg;" vertex="1" parent="Tp4UnbFH_tM6nSBPs5ul-23">
          <mxGeometry x="40.59701492537314" y="16.363636363636363" width="17.982089552238808" height="23.880597014925375" as="geometry" />
        </mxCell>
        <mxCell id="Tp4UnbFH_tM6nSBPs5ul-13" value="" style="image;aspect=fixed;html=1;points=[];align=center;fontSize=12;image=img/lib/azure2/identity/Azure_Information_Protection.svg;" vertex="1" parent="Tp4UnbFH_tM6nSBPs5ul-23">
          <mxGeometry x="72.43781094527364" y="16.363636363636363" width="17.982089552238808" height="23.880597014925375" as="geometry" />
        </mxCell>
        <mxCell id="Tp4UnbFH_tM6nSBPs5ul-14" value="" style="image;aspect=fixed;html=1;points=[];align=center;fontSize=12;image=img/lib/azure2/identity/Azure_Information_Protection.svg;" vertex="1" parent="Tp4UnbFH_tM6nSBPs5ul-23">
          <mxGeometry x="104.27860696517413" y="16.363636363636363" width="17.982089552238808" height="23.880597014925375" as="geometry" />
        </mxCell>
        <mxCell id="Tp4UnbFH_tM6nSBPs5ul-15" value="" style="image;aspect=fixed;html=1;points=[];align=center;fontSize=12;image=img/lib/azure2/identity/Azure_Information_Protection.svg;" vertex="1" parent="Tp4UnbFH_tM6nSBPs5ul-23">
          <mxGeometry x="72.43781094527364" y="49.09090909090909" width="17.982089552238808" height="23.880597014925375" as="geometry" />
        </mxCell>
        <mxCell id="Tp4UnbFH_tM6nSBPs5ul-16" value="" style="image;aspect=fixed;html=1;points=[];align=center;fontSize=12;image=img/lib/azure2/identity/Azure_Information_Protection.svg;" vertex="1" parent="Tp4UnbFH_tM6nSBPs5ul-23">
          <mxGeometry x="104.27860696517413" y="49.09090909090909" width="17.982089552238808" height="23.880597014925375" as="geometry" />
        </mxCell>
        <mxCell id="Tp4UnbFH_tM6nSBPs5ul-17" value="" style="image;aspect=fixed;html=1;points=[];align=center;fontSize=12;image=img/lib/azure2/identity/Azure_Information_Protection.svg;" vertex="1" parent="Tp4UnbFH_tM6nSBPs5ul-23">
          <mxGeometry x="136.11940298507463" y="16.363636363636363" width="17.982089552238808" height="23.880597014925375" as="geometry" />
        </mxCell>
        <mxCell id="Tp4UnbFH_tM6nSBPs5ul-18" value="" style="image;aspect=fixed;html=1;points=[];align=center;fontSize=12;image=img/lib/azure2/identity/Azure_Information_Protection.svg;" vertex="1" parent="Tp4UnbFH_tM6nSBPs5ul-23">
          <mxGeometry x="136.11940298507463" y="49.09090909090909" width="17.982089552238808" height="23.880597014925375" as="geometry" />
        </mxCell>
        <mxCell id="Tp4UnbFH_tM6nSBPs5ul-36" style="edgeStyle=orthogonalEdgeStyle;rounded=0;orthogonalLoop=1;jettySize=auto;html=1;entryX=0.36;entryY=0.013;entryDx=0;entryDy=0;entryPerimeter=0;" edge="1" parent="1" source="Tp4UnbFH_tM6nSBPs5ul-8" target="Tp4UnbFH_tM6nSBPs5ul-20">
          <mxGeometry relative="1" as="geometry" />
        </mxCell>
        <mxCell id="Tp4UnbFH_tM6nSBPs5ul-39" style="edgeStyle=orthogonalEdgeStyle;rounded=0;orthogonalLoop=1;jettySize=auto;html=1;entryX=0.452;entryY=0.002;entryDx=0;entryDy=0;entryPerimeter=0;" edge="1" parent="1" target="Tp4UnbFH_tM6nSBPs5ul-5">
          <mxGeometry relative="1" as="geometry">
            <mxPoint x="826.99" y="176.84" as="sourcePoint" />
            <mxPoint x="368.03" y="320.99999999999994" as="targetPoint" />
            <Array as="points">
              <mxPoint x="827" y="250" />
              <mxPoint x="367" y="250" />
            </Array>
          </mxGeometry>
        </mxCell>
        <mxCell id="Tp4UnbFH_tM6nSBPs5ul-48" value="数据下发" style="edgeLabel;html=1;align=center;verticalAlign=middle;resizable=0;points=[];" vertex="1" connectable="0" parent="Tp4UnbFH_tM6nSBPs5ul-39">
          <mxGeometry x="0.6303" y="-1" relative="1" as="geometry">
            <mxPoint x="-43" y="31" as="offset" />
          </mxGeometry>
        </mxCell>
        <mxCell id="Tp4UnbFH_tM6nSBPs5ul-41" value="" style="group" vertex="1" connectable="0" parent="1">
          <mxGeometry x="600" y="50" width="490" height="130" as="geometry" />
        </mxCell>
        <mxCell id="Tp4UnbFH_tM6nSBPs5ul-3" value="" style="verticalLabelPosition=bottom;verticalAlign=top;html=1;shape=mxgraph.basic.rect;fillColor2=none;strokeWidth=1;size=20;indent=5;" vertex="1" parent="Tp4UnbFH_tM6nSBPs5ul-41">
          <mxGeometry width="490" height="130" as="geometry" />
        </mxCell>
        <mxCell id="Tp4UnbFH_tM6nSBPs5ul-1" value="云端服务" style="ellipse;shape=cloud;whiteSpace=wrap;html=1;" vertex="1" parent="Tp4UnbFH_tM6nSBPs5ul-41">
          <mxGeometry x="123" y="20" width="220" height="80" as="geometry" />
        </mxCell>
        <mxCell id="Tp4UnbFH_tM6nSBPs5ul-42" value="&lt;span style=&quot;font-size: 12pt; font-family: Calibri, sans-serif;&quot; lang=&quot;EN-US&quot;&gt;100A&lt;/span&gt;&lt;span style=&quot;font-size: 12pt; font-family: 等线;&quot;&gt;电表&lt;/span&gt;" style="image;aspect=fixed;html=1;points=[];align=center;fontSize=12;image=img/lib/azure2/iot/IoT_Central_Applications.svg;" vertex="1" parent="1">
          <mxGeometry x="460" y="546" width="60" height="69" as="geometry" />
        </mxCell>
        <mxCell id="Tp4UnbFH_tM6nSBPs5ul-50" value="&lt;span style=&quot;font-size: 12pt; font-family: 等线;&quot;&gt;200:5电表&lt;/span&gt;" style="image;aspect=fixed;html=1;points=[];align=center;fontSize=12;image=img/lib/azure2/iot/IoT_Central_Applications.svg;" vertex="1" parent="1">
          <mxGeometry x="590" y="546" width="60" height="69" as="geometry" />
        </mxCell>
        <mxCell id="Tp4UnbFH_tM6nSBPs5ul-54" style="edgeStyle=orthogonalEdgeStyle;rounded=0;orthogonalLoop=1;jettySize=auto;html=1;" edge="1" parent="1" target="Tp4UnbFH_tM6nSBPs5ul-62">
          <mxGeometry relative="1" as="geometry">
            <mxPoint x="1125" y="380" as="sourcePoint" />
          </mxGeometry>
        </mxCell>
        <mxCell id="Tp4UnbFH_tM6nSBPs5ul-55" value="通讯方式RS485" style="edgeLabel;html=1;align=center;verticalAlign=middle;resizable=0;points=[];" vertex="1" connectable="0" parent="Tp4UnbFH_tM6nSBPs5ul-54">
          <mxGeometry x="0.4532" y="-3" relative="1" as="geometry">
            <mxPoint x="3" y="5" as="offset" />
          </mxGeometry>
        </mxCell>
        <mxCell id="Tp4UnbFH_tM6nSBPs5ul-56" style="edgeStyle=orthogonalEdgeStyle;rounded=0;orthogonalLoop=1;jettySize=auto;html=1;exitX=0;exitY=0.75;exitDx=0;exitDy=0;" edge="1" parent="1" target="Tp4UnbFH_tM6nSBPs5ul-64" source="Tp4UnbFH_tM6nSBPs5ul-7">
          <mxGeometry relative="1" as="geometry">
            <mxPoint x="1178" y="420" as="sourcePoint" />
          </mxGeometry>
        </mxCell>
        <mxCell id="Tp4UnbFH_tM6nSBPs5ul-57" value="通讯方式RS485" style="edgeLabel;html=1;align=center;verticalAlign=middle;resizable=0;points=[];" vertex="1" connectable="0" parent="Tp4UnbFH_tM6nSBPs5ul-56">
          <mxGeometry x="-0.4322" y="-3" relative="1" as="geometry">
            <mxPoint x="3" y="33" as="offset" />
          </mxGeometry>
        </mxCell>
        <mxCell id="Tp4UnbFH_tM6nSBPs5ul-58" style="edgeStyle=orthogonalEdgeStyle;rounded=0;orthogonalLoop=1;jettySize=auto;html=1;" edge="1" parent="1" target="Tp4UnbFH_tM6nSBPs5ul-83">
          <mxGeometry relative="1" as="geometry">
            <mxPoint x="1231" y="380" as="sourcePoint" />
          </mxGeometry>
        </mxCell>
        <mxCell id="Tp4UnbFH_tM6nSBPs5ul-59" value="通讯方式RS485" style="edgeLabel;html=1;align=center;verticalAlign=middle;resizable=0;points=[];" vertex="1" connectable="0" parent="Tp4UnbFH_tM6nSBPs5ul-58">
          <mxGeometry x="0.1556" y="-1" relative="1" as="geometry">
            <mxPoint as="offset" />
          </mxGeometry>
        </mxCell>
        <mxCell id="Tp4UnbFH_tM6nSBPs5ul-60" style="edgeStyle=orthogonalEdgeStyle;rounded=0;orthogonalLoop=1;jettySize=auto;html=1;" edge="1" parent="1" target="Tp4UnbFH_tM6nSBPs5ul-84">
          <mxGeometry relative="1" as="geometry">
            <mxPoint x="1231" y="380" as="sourcePoint" />
          </mxGeometry>
        </mxCell>
        <mxCell id="Tp4UnbFH_tM6nSBPs5ul-61" value="通讯方式RS485" style="edgeLabel;html=1;align=center;verticalAlign=middle;resizable=0;points=[];" vertex="1" connectable="0" parent="Tp4UnbFH_tM6nSBPs5ul-60">
          <mxGeometry x="0.3443" relative="1" as="geometry">
            <mxPoint y="15" as="offset" />
          </mxGeometry>
        </mxCell>
        <mxCell id="Tp4UnbFH_tM6nSBPs5ul-62" value="门磁Hub" style="image;aspect=fixed;html=1;points=[];align=center;fontSize=12;image=img/lib/azure2/iot/IoT_Hub.svg;" vertex="1" parent="1">
          <mxGeometry x="900" y="540" width="64" height="64" as="geometry" />
        </mxCell>
        <mxCell id="Tp4UnbFH_tM6nSBPs5ul-63" style="edgeStyle=orthogonalEdgeStyle;rounded=0;orthogonalLoop=1;jettySize=auto;html=1;" edge="1" parent="1" source="Tp4UnbFH_tM6nSBPs5ul-64" target="Tp4UnbFH_tM6nSBPs5ul-77">
          <mxGeometry relative="1" as="geometry" />
        </mxCell>
        <mxCell id="Tp4UnbFH_tM6nSBPs5ul-64" value="门磁Hub" style="image;aspect=fixed;html=1;points=[];align=center;fontSize=12;image=img/lib/azure2/iot/IoT_Hub.svg;" vertex="1" parent="1">
          <mxGeometry x="1070" y="530" width="64" height="64" as="geometry" />
        </mxCell>
        <mxCell id="Tp4UnbFH_tM6nSBPs5ul-65" value="" style="group" vertex="1" connectable="0" parent="1">
          <mxGeometry x="880" y="700" width="145" height="90" as="geometry" />
        </mxCell>
        <mxCell id="Tp4UnbFH_tM6nSBPs5ul-66" value="&lt;font face=&quot;等线&quot;&gt;&lt;span style=&quot;font-size: 16px;&quot;&gt;&lt;b&gt;小门磁&lt;/b&gt;&lt;/span&gt;&lt;/font&gt;" style="verticalLabelPosition=bottom;verticalAlign=top;html=1;shape=mxgraph.basic.rect;fillColor2=none;strokeWidth=1;size=20;indent=5;" vertex="1" parent="Tp4UnbFH_tM6nSBPs5ul-65">
          <mxGeometry width="145" height="90" as="geometry" />
        </mxCell>
        <mxCell id="Tp4UnbFH_tM6nSBPs5ul-67" value="" style="image;aspect=fixed;html=1;points=[];align=center;fontSize=12;image=img/lib/azure2/identity/Azure_Information_Protection.svg;" vertex="1" parent="Tp4UnbFH_tM6nSBPs5ul-65">
          <mxGeometry x="7.213930348258707" y="16.363636363636363" width="16.296268656716418" height="21.64179104477612" as="geometry" />
        </mxCell>
        <mxCell id="Tp4UnbFH_tM6nSBPs5ul-68" value="" style="image;aspect=fixed;html=1;points=[];align=center;fontSize=12;image=img/lib/azure2/identity/Azure_Information_Protection.svg;" vertex="1" parent="Tp4UnbFH_tM6nSBPs5ul-65">
          <mxGeometry x="7.213930348258707" y="49.09090909090909" width="16.296268656716418" height="21.64179104477612" as="geometry" />
        </mxCell>
        <mxCell id="Tp4UnbFH_tM6nSBPs5ul-69" value="" style="image;aspect=fixed;html=1;points=[];align=center;fontSize=12;image=img/lib/azure2/identity/Azure_Information_Protection.svg;" vertex="1" parent="Tp4UnbFH_tM6nSBPs5ul-65">
          <mxGeometry x="36.791044776119406" y="49.09090909090909" width="16.296268656716418" height="21.64179104477612" as="geometry" />
        </mxCell>
        <mxCell id="Tp4UnbFH_tM6nSBPs5ul-70" value="" style="image;aspect=fixed;html=1;points=[];align=center;fontSize=12;image=img/lib/azure2/identity/Azure_Information_Protection.svg;" vertex="1" parent="Tp4UnbFH_tM6nSBPs5ul-65">
          <mxGeometry x="36.791044776119406" y="16.363636363636363" width="16.296268656716418" height="21.64179104477612" as="geometry" />
        </mxCell>
        <mxCell id="Tp4UnbFH_tM6nSBPs5ul-71" value="" style="image;aspect=fixed;html=1;points=[];align=center;fontSize=12;image=img/lib/azure2/identity/Azure_Information_Protection.svg;" vertex="1" parent="Tp4UnbFH_tM6nSBPs5ul-65">
          <mxGeometry x="65.64676616915423" y="16.363636363636363" width="16.296268656716418" height="21.64179104477612" as="geometry" />
        </mxCell>
        <mxCell id="Tp4UnbFH_tM6nSBPs5ul-72" value="" style="image;aspect=fixed;html=1;points=[];align=center;fontSize=12;image=img/lib/azure2/identity/Azure_Information_Protection.svg;" vertex="1" parent="Tp4UnbFH_tM6nSBPs5ul-65">
          <mxGeometry x="94.50248756218906" y="16.363636363636363" width="16.296268656716418" height="21.64179104477612" as="geometry" />
        </mxCell>
        <mxCell id="Tp4UnbFH_tM6nSBPs5ul-73" value="" style="image;aspect=fixed;html=1;points=[];align=center;fontSize=12;image=img/lib/azure2/identity/Azure_Information_Protection.svg;" vertex="1" parent="Tp4UnbFH_tM6nSBPs5ul-65">
          <mxGeometry x="65.64676616915423" y="49.09090909090909" width="16.296268656716418" height="21.64179104477612" as="geometry" />
        </mxCell>
        <mxCell id="Tp4UnbFH_tM6nSBPs5ul-74" value="" style="image;aspect=fixed;html=1;points=[];align=center;fontSize=12;image=img/lib/azure2/identity/Azure_Information_Protection.svg;" vertex="1" parent="Tp4UnbFH_tM6nSBPs5ul-65">
          <mxGeometry x="94.50248756218906" y="49.09090909090909" width="16.296268656716418" height="21.64179104477612" as="geometry" />
        </mxCell>
        <mxCell id="Tp4UnbFH_tM6nSBPs5ul-75" value="" style="image;aspect=fixed;html=1;points=[];align=center;fontSize=12;image=img/lib/azure2/identity/Azure_Information_Protection.svg;" vertex="1" parent="Tp4UnbFH_tM6nSBPs5ul-65">
          <mxGeometry x="123.35820895522389" y="16.363636363636363" width="16.296268656716418" height="21.64179104477612" as="geometry" />
        </mxCell>
        <mxCell id="Tp4UnbFH_tM6nSBPs5ul-76" value="" style="image;aspect=fixed;html=1;points=[];align=center;fontSize=12;image=img/lib/azure2/identity/Azure_Information_Protection.svg;" vertex="1" parent="Tp4UnbFH_tM6nSBPs5ul-65">
          <mxGeometry x="123.35820895522389" y="49.09090909090909" width="16.296268656716418" height="21.64179104477612" as="geometry" />
        </mxCell>
        <mxCell id="Tp4UnbFH_tM6nSBPs5ul-82" style="edgeStyle=orthogonalEdgeStyle;rounded=0;orthogonalLoop=1;jettySize=auto;html=1;entryX=0.36;entryY=0.013;entryDx=0;entryDy=0;entryPerimeter=0;" edge="1" parent="1" source="Tp4UnbFH_tM6nSBPs5ul-62" target="Tp4UnbFH_tM6nSBPs5ul-66">
          <mxGeometry relative="1" as="geometry" />
        </mxCell>
        <mxCell id="Tp4UnbFH_tM6nSBPs5ul-83" value="&lt;span style=&quot;font-size: 12pt; font-family: Calibri, sans-serif;&quot; lang=&quot;EN-US&quot;&gt;100A&lt;/span&gt;&lt;span style=&quot;font-size: 12pt; font-family: 等线;&quot;&gt;电表&lt;/span&gt;" style="image;aspect=fixed;html=1;points=[];align=center;fontSize=12;image=img/lib/azure2/iot/IoT_Central_Applications.svg;" vertex="1" parent="1">
          <mxGeometry x="1201" y="537.5" width="60" height="69" as="geometry" />
        </mxCell>
        <mxCell id="Tp4UnbFH_tM6nSBPs5ul-84" value="&lt;span style=&quot;font-size: 12pt; font-family: 等线;&quot;&gt;200:5电表&lt;/span&gt;" style="image;aspect=fixed;html=1;points=[];align=center;fontSize=12;image=img/lib/azure2/iot/IoT_Central_Applications.svg;" vertex="1" parent="1">
          <mxGeometry x="1320" y="535" width="60" height="69" as="geometry" />
        </mxCell>
        <mxCell id="Tp4UnbFH_tM6nSBPs5ul-98" style="edgeStyle=orthogonalEdgeStyle;rounded=0;orthogonalLoop=1;jettySize=auto;html=1;entryX=0.464;entryY=0.025;entryDx=0;entryDy=0;entryPerimeter=0;exitX=1;exitY=0.75;exitDx=0;exitDy=0;" edge="1" parent="1" source="Tp4UnbFH_tM6nSBPs5ul-7" target="Tp4UnbFH_tM6nSBPs5ul-102">
          <mxGeometry relative="1" as="geometry">
            <mxPoint x="1320" y="360" as="sourcePoint" />
            <mxPoint x="1600" y="697" as="targetPoint" />
            <Array as="points">
              <mxPoint x="1594" y="380" />
            </Array>
          </mxGeometry>
        </mxCell>
        <mxCell id="Tp4UnbFH_tM6nSBPs5ul-114" value="通讯方式RS485" style="edgeLabel;html=1;align=center;verticalAlign=middle;resizable=0;points=[];" vertex="1" connectable="0" parent="Tp4UnbFH_tM6nSBPs5ul-98">
          <mxGeometry x="0.8093" y="-2" relative="1" as="geometry">
            <mxPoint x="4" y="-110" as="offset" />
          </mxGeometry>
        </mxCell>
        <mxCell id="Tp4UnbFH_tM6nSBPs5ul-99" value="冷库控制器-1" style="image;aspect=fixed;html=1;points=[];align=center;fontSize=12;image=img/lib/azure2/iot/Device_Provisioning_Services.svg;" vertex="1" parent="1">
          <mxGeometry x="1270" y="693.4699999999999" width="64" height="66" as="geometry" />
        </mxCell>
        <mxCell id="Tp4UnbFH_tM6nSBPs5ul-100" value="冷库控制器-2" style="image;aspect=fixed;html=1;points=[];align=center;fontSize=12;image=img/lib/azure2/iot/Device_Provisioning_Services.svg;" vertex="1" parent="1">
          <mxGeometry x="1369" y="691.9999999999999" width="64" height="66" as="geometry" />
        </mxCell>
        <mxCell id="Tp4UnbFH_tM6nSBPs5ul-101" value="冷库控制器-3" style="image;aspect=fixed;html=1;points=[];align=center;fontSize=12;image=img/lib/azure2/iot/Device_Provisioning_Services.svg;" vertex="1" parent="1">
          <mxGeometry x="1463" y="693.4699999999999" width="64" height="66" as="geometry" />
        </mxCell>
        <mxCell id="Tp4UnbFH_tM6nSBPs5ul-102" value="冷库控制器-4" style="image;aspect=fixed;html=1;points=[];align=center;fontSize=12;image=img/lib/azure2/iot/Device_Provisioning_Services.svg;" vertex="1" parent="1">
          <mxGeometry x="1564" y="693.4699999999999" width="64" height="66" as="geometry" />
        </mxCell>
        <mxCell id="Tp4UnbFH_tM6nSBPs5ul-105" style="edgeStyle=orthogonalEdgeStyle;rounded=0;orthogonalLoop=1;jettySize=auto;html=1;entryX=0.688;entryY=1.012;entryDx=0;entryDy=0;entryPerimeter=0;" edge="1" parent="1" source="Tp4UnbFH_tM6nSBPs5ul-6" target="Tp4UnbFH_tM6nSBPs5ul-3">
          <mxGeometry relative="1" as="geometry">
            <Array as="points">
              <mxPoint x="1160" y="250" />
              <mxPoint x="937" y="250" />
            </Array>
          </mxGeometry>
        </mxCell>
        <mxCell id="Tp4UnbFH_tM6nSBPs5ul-106" value="数据上报" style="edgeLabel;html=1;align=center;verticalAlign=middle;resizable=0;points=[];" vertex="1" connectable="0" parent="Tp4UnbFH_tM6nSBPs5ul-105">
          <mxGeometry x="-0.7638" y="4" relative="1" as="geometry">
            <mxPoint x="1" y="2" as="offset" />
          </mxGeometry>
        </mxCell>
        <mxCell id="Tp4UnbFH_tM6nSBPs5ul-46" style="edgeStyle=orthogonalEdgeStyle;rounded=0;orthogonalLoop=1;jettySize=auto;html=1;entryX=0.281;entryY=1.018;entryDx=0;entryDy=0;entryPerimeter=0;exitX=0.374;exitY=0.001;exitDx=0;exitDy=0;exitPerimeter=0;" edge="1" parent="1" source="Tp4UnbFH_tM6nSBPs5ul-5" target="Tp4UnbFH_tM6nSBPs5ul-3">
          <mxGeometry relative="1" as="geometry">
            <mxPoint x="310.0032558139535" y="334.81" as="sourcePoint" />
            <mxPoint x="748.02" y="190" as="targetPoint" />
          </mxGeometry>
        </mxCell>
        <mxCell id="Tp4UnbFH_tM6nSBPs5ul-47" value="数据上报" style="edgeLabel;html=1;align=center;verticalAlign=middle;resizable=0;points=[];" vertex="1" connectable="0" parent="Tp4UnbFH_tM6nSBPs5ul-46">
          <mxGeometry x="-0.0808" y="1" relative="1" as="geometry">
            <mxPoint x="-199" y="31" as="offset" />
          </mxGeometry>
        </mxCell>
        <mxCell id="Tp4UnbFH_tM6nSBPs5ul-108" value="" style="group" vertex="1" connectable="0" parent="1">
          <mxGeometry x="1060" y="690" width="85" height="110" as="geometry" />
        </mxCell>
        <mxCell id="Tp4UnbFH_tM6nSBPs5ul-77" value="&lt;font face=&quot;等线&quot;&gt;&lt;span style=&quot;font-size: 16px;&quot;&gt;&lt;b&gt;大门磁&lt;/b&gt;&lt;/span&gt;&lt;/font&gt;" style="verticalLabelPosition=bottom;verticalAlign=top;html=1;shape=mxgraph.basic.rect;fillColor2=none;strokeWidth=1;size=20;indent=5;" vertex="1" parent="Tp4UnbFH_tM6nSBPs5ul-108">
          <mxGeometry width="85" height="110" as="geometry" />
        </mxCell>
        <mxCell id="Tp4UnbFH_tM6nSBPs5ul-78" value="" style="image;aspect=fixed;html=1;points=[];align=center;fontSize=12;image=img/lib/azure2/identity/Azure_Information_Protection.svg;" vertex="1" parent="Tp4UnbFH_tM6nSBPs5ul-108">
          <mxGeometry x="9.444444444444445" y="20" width="21.335" height="28.333333333333332" as="geometry" />
        </mxCell>
        <mxCell id="Tp4UnbFH_tM6nSBPs5ul-79" value="" style="image;aspect=fixed;html=1;points=[];align=center;fontSize=12;image=img/lib/azure2/identity/Azure_Information_Protection.svg;" vertex="1" parent="Tp4UnbFH_tM6nSBPs5ul-108">
          <mxGeometry x="9.444444444444445" y="60" width="21.335" height="28.333333333333332" as="geometry" />
        </mxCell>
        <mxCell id="Tp4UnbFH_tM6nSBPs5ul-80" value="" style="image;aspect=fixed;html=1;points=[];align=center;fontSize=12;image=img/lib/azure2/identity/Azure_Information_Protection.svg;" vertex="1" parent="Tp4UnbFH_tM6nSBPs5ul-108">
          <mxGeometry x="48.166666666666664" y="60" width="21.335" height="28.333333333333332" as="geometry" />
        </mxCell>
        <mxCell id="Tp4UnbFH_tM6nSBPs5ul-81" value="" style="image;aspect=fixed;html=1;points=[];align=center;fontSize=12;image=img/lib/azure2/identity/Azure_Information_Protection.svg;" vertex="1" parent="Tp4UnbFH_tM6nSBPs5ul-108">
          <mxGeometry x="48.166666666666664" y="20" width="21.335" height="28.333333333333332" as="geometry" />
        </mxCell>
        <mxCell id="Tp4UnbFH_tM6nSBPs5ul-110" value="" style="group" vertex="1" connectable="0" parent="1">
          <mxGeometry x="251" y="680" width="90" height="110" as="geometry" />
        </mxCell>
        <mxCell id="Tp4UnbFH_tM6nSBPs5ul-25" value="&lt;font face=&quot;等线&quot;&gt;&lt;span style=&quot;font-size: 16px;&quot;&gt;&lt;b&gt;大门磁&lt;/b&gt;&lt;/span&gt;&lt;/font&gt;" style="verticalLabelPosition=bottom;verticalAlign=top;html=1;shape=mxgraph.basic.rect;fillColor2=none;strokeWidth=1;size=20;indent=5;" vertex="1" parent="Tp4UnbFH_tM6nSBPs5ul-110">
          <mxGeometry width="90" height="110" as="geometry" />
        </mxCell>
        <mxCell id="Tp4UnbFH_tM6nSBPs5ul-26" value="" style="image;aspect=fixed;html=1;points=[];align=center;fontSize=12;image=img/lib/azure2/identity/Azure_Information_Protection.svg;" vertex="1" parent="Tp4UnbFH_tM6nSBPs5ul-110">
          <mxGeometry x="10" y="20" width="22.59" height="30" as="geometry" />
        </mxCell>
        <mxCell id="Tp4UnbFH_tM6nSBPs5ul-27" value="" style="image;aspect=fixed;html=1;points=[];align=center;fontSize=12;image=img/lib/azure2/identity/Azure_Information_Protection.svg;" vertex="1" parent="Tp4UnbFH_tM6nSBPs5ul-110">
          <mxGeometry x="10" y="60" width="22.59" height="30" as="geometry" />
        </mxCell>
        <mxCell id="Tp4UnbFH_tM6nSBPs5ul-28" value="" style="image;aspect=fixed;html=1;points=[];align=center;fontSize=12;image=img/lib/azure2/identity/Azure_Information_Protection.svg;" vertex="1" parent="Tp4UnbFH_tM6nSBPs5ul-110">
          <mxGeometry x="51" y="60" width="22.59" height="30" as="geometry" />
        </mxCell>
        <mxCell id="Tp4UnbFH_tM6nSBPs5ul-29" value="" style="image;aspect=fixed;html=1;points=[];align=center;fontSize=12;image=img/lib/azure2/identity/Azure_Information_Protection.svg;" vertex="1" parent="Tp4UnbFH_tM6nSBPs5ul-110">
          <mxGeometry x="51" y="20" width="22.59" height="30" as="geometry" />
        </mxCell>
      </root>
    </mxGraphModel>
  </diagram>
</mxfile>
